<svg version="1.2" baseProfile="tiny-ps" xmlns="http://www.w3.org/2000/svg" viewBox="0 0 17 26" width="17" height="26">
	<title>ХЕДЕР</title>
	<style>
		tspan { white-space:pre }
		.shp0 { fill: #cbcbcb } 
	</style>
	<g id="ХЕДЕР">
		<g id="Контакты">
			<g id="адрес">
				<path id="город" class="shp0" d="M8.45 12.32C7.48 12.32 6.57 11.95 5.88 11.26C4.46 9.83 4.46 7.52 5.88 6.1C6.56 5.41 7.48 5.03 8.45 5.03C9.42 5.03 10.33 5.41 11.02 6.1C12.44 7.52 12.44 9.83 11.02 11.26C10.33 11.95 9.42 12.32 8.45 12.32L8.45 12.32ZM8.45 6.62C7.9 6.62 7.38 6.83 7 7.22C6.2 8.02 6.2 9.33 7 10.13C7.38 10.52 7.9 10.74 8.45 10.74C9 10.74 9.51 10.52 9.9 10.13C10.7 9.33 10.7 8.02 9.9 7.22C9.51 6.83 9 6.62 8.45 6.62L8.45 6.62ZM8.45 6.62M13.68 7.85C13.5 7.85 13.34 7.73 13.3 7.55C13.27 7.42 13.25 7.33 13.23 7.26C13.21 7.14 13.2 7.11 13.18 7.06C13.1 6.86 13.19 6.63 13.39 6.54C13.59 6.46 13.82 6.55 13.91 6.75C13.96 6.87 13.98 6.95 14.01 7.09C14.02 7.16 14.04 7.25 14.07 7.37C14.12 7.58 13.99 7.79 13.77 7.84C13.74 7.85 13.71 7.85 13.68 7.85L13.68 7.85ZM13.68 7.85M12.97 6.15C12.84 6.15 12.71 6.08 12.63 5.96C11.81 4.67 10.48 3.8 8.96 3.6C8.75 3.57 8.6 3.37 8.63 3.15C8.66 2.93 8.85 2.78 9.07 2.81C10.82 3.05 12.36 4.04 13.3 5.54C13.42 5.72 13.36 5.97 13.18 6.09C13.11 6.13 13.04 6.15 12.97 6.15L12.97 6.15ZM12.97 6.15M8.44 26C7.78 26 6.52 25.7 5.5 23.68C4.31 21.34 -0.09 11.59 -0.09 8.52C-0.09 3.82 3.72 -0.01 8.4 -0.01C13.09 -0.01 16.9 3.82 16.9 8.52C16.9 11.56 12.5 21.43 11.38 23.68C10.63 25.18 9.59 26 8.44 26L8.44 26ZM8.4 1.58C4.59 1.58 1.49 4.7 1.49 8.52C1.49 10.93 5.33 19.85 6.91 22.96C7.38 23.88 7.93 24.41 8.44 24.41C8.94 24.41 9.51 23.87 9.97 22.96C11.34 20.21 15.32 10.97 15.32 8.52C15.32 4.7 12.21 1.58 8.4 1.58L8.4 1.58ZM8.4 1.58" />
			</g>
		</g>
	</g>
</svg>