<svg version="1.2" baseProfile="tiny-ps" xmlns="http://www.w3.org/2000/svg" viewBox="0 0 24 26" width="24" height="26">
	<title>ХЕДЕР</title>
	<style>
		tspan { white-space:pre }
		.shp0 { fill: #cbcbcb } 
	</style>
	<g id="ХЕДЕР">
		<g id="Контакты">
			<g id="часы работы">
				<path id="часы" class="shp0" d="M11.86 25.71C5.54 25.71 0.4 20.4 0.4 13.87C0.4 7.34 5.54 2.02 11.86 2.02C18.17 2.02 23.31 7.34 23.31 13.87C23.31 20.4 18.17 25.71 11.86 25.71L11.86 25.71ZM11.86 3.61C6.38 3.61 1.93 8.21 1.93 13.87C1.93 19.52 6.38 24.12 11.86 24.12C17.33 24.12 21.78 19.52 21.78 13.87C21.78 8.21 17.33 3.61 11.86 3.61L11.86 3.61ZM11.86 3.61M7.79 21.7C7.72 21.7 7.66 21.68 7.6 21.64C4.89 20.06 3.21 17.08 3.21 13.87C3.21 13.65 3.39 13.47 3.6 13.47C3.81 13.47 3.98 13.65 3.98 13.87C3.98 16.79 5.51 19.51 7.98 20.95C8.16 21.06 8.23 21.31 8.12 21.5C8.05 21.63 7.92 21.7 7.79 21.7L7.79 21.7ZM7.79 21.7M11.1 22.77C11.09 22.77 11.08 22.77 11.07 22.77C10.9 22.75 10.74 22.73 10.57 22.7C10.36 22.67 10.22 22.47 10.25 22.25C10.28 22.04 10.48 21.89 10.69 21.92C10.84 21.94 10.98 21.96 11.14 21.97C11.35 21.99 11.5 22.19 11.48 22.4C11.47 22.61 11.3 22.77 11.1 22.77L11.1 22.77ZM11.1 22.77M2.45 8.52C2.31 8.52 2.17 8.48 2.04 8.4C0.76 7.55 0 6.11 0 4.55C0 2.02 1.98 -0.03 4.42 -0.03C6.2 -0.03 7.8 1.07 8.5 2.77C8.66 3.17 8.48 3.64 8.09 3.81C7.69 3.98 7.25 3.79 7.08 3.38C6.63 2.28 5.58 1.56 4.42 1.56C2.83 1.56 1.54 2.9 1.54 4.55C1.54 5.57 2.03 6.51 2.87 7.06C3.22 7.3 3.33 7.79 3.1 8.16C2.95 8.39 2.71 8.52 2.45 8.52L2.45 8.52ZM2.45 8.52M21.55 8.52C21.29 8.52 21.05 8.39 20.9 8.16C20.67 7.79 20.78 7.3 21.13 7.06C21.97 6.51 22.46 5.57 22.46 4.55C22.46 2.9 21.17 1.56 19.58 1.56C18.42 1.56 17.37 2.28 16.92 3.38C16.76 3.79 16.3 3.98 15.91 3.81C15.52 3.64 15.34 3.17 15.5 2.77C16.2 1.07 17.8 -0.03 19.58 -0.03C22.02 -0.03 24 2.02 24 4.55C24 6.11 23.24 7.55 21.96 8.4C21.83 8.48 21.69 8.52 21.55 8.52L21.55 8.52ZM21.55 8.52M3.76 25.97C3.59 25.97 3.43 25.91 3.29 25.8C2.95 25.54 2.89 25.04 3.15 24.69L4.83 22.41C5.09 22.06 5.57 22 5.91 22.26C6.24 22.53 6.31 23.03 6.05 23.38L4.37 25.65C4.22 25.86 3.99 25.97 3.76 25.97L3.76 25.97ZM3.76 25.97M19.7 25.97C19.47 25.97 19.24 25.86 19.08 25.65L17.4 23.38C17.15 23.03 17.21 22.53 17.55 22.26C17.88 22 18.37 22.06 18.62 22.41L20.31 24.69C20.56 25.04 20.5 25.54 20.16 25.8C20.02 25.91 19.86 25.97 19.7 25.97L19.7 25.97ZM19.7 25.97M14.04 17.14C13.84 17.14 13.64 17.06 13.49 16.9L11.42 14.62C11.27 14.47 11.31 14.27 11.31 14.06L11.31 7.78C11.31 7.34 11.65 6.98 12.08 6.98C12.5 6.98 12.85 7.34 12.85 7.78L12.85 13.73L14.7 15.79C15 16.1 14.94 16.6 14.63 16.91C14.48 17.07 14.23 17.14 14.04 17.14L14.04 17.14ZM14.04 17.14" />
			</g>
		</g>
	</g>
</svg>