<svg version="1.2" baseProfile="tiny-ps" xmlns="http://www.w3.org/2000/svg" viewBox="0 0 17 26" width="17" height="26">
	<title>ХЕДЕР</title>
	<style>
		tspan { white-space:pre }
		.shp0 { fill: #cbcbcb } 
	</style>
	<g id="ХЕДЕР">
		<g id="Контакты">
			<g id="тел">
				<path id="телефон" class="shp0" d="M16.98 23.18C16.98 24.74 15.81 26 14.36 26L2.59 26C1.15 26 -0.03 24.74 -0.03 23.18L-0.03 2.82C-0.03 1.26 1.15 0 2.59 0L14.36 0C15.81 0 16.98 1.26 16.98 2.82L16.98 23.18ZM15.47 2.82C15.47 2.16 14.97 1.62 14.36 1.62L2.59 1.62C1.98 1.62 1.49 2.16 1.49 2.82L1.49 23.18C1.49 23.84 1.98 24.38 2.59 24.38L14.36 24.38C14.97 24.38 15.47 23.84 15.47 23.18L15.47 2.82ZM15.47 2.82M16.21 20.72L0.71 20.72C0.5 20.72 0.33 20.54 0.33 20.31C0.33 20.09 0.5 19.91 0.71 19.91L16.21 19.91C16.42 19.91 16.59 20.09 16.59 20.31C16.59 20.54 16.42 20.72 16.21 20.72L16.21 20.72ZM16.21 20.72M16.21 4.47L0.71 4.47C0.5 4.47 0.33 4.29 0.33 4.06C0.33 3.84 0.5 3.66 0.71 3.66L16.21 3.66C16.42 3.66 16.59 3.84 16.59 4.06C16.59 4.29 16.42 4.47 16.21 4.47L16.21 4.47ZM16.21 4.47M9.42 22.44C9.42 22.84 9.13 23.16 8.76 23.16L8.57 23.16C8.21 23.16 7.91 22.84 7.91 22.44L7.91 22.24C7.91 21.85 8.21 21.53 8.57 21.53L8.76 21.53C9.13 21.53 9.42 21.85 9.42 22.24L9.42 22.44ZM9.42 22.44M10.19 11.69C10.14 11.69 10.1 11.68 10.06 11.66C9.86 11.59 9.76 11.36 9.83 11.15L9.93 10.83C10 10.62 10.22 10.51 10.41 10.58C10.61 10.66 10.71 10.89 10.64 11.1L10.54 11.42C10.49 11.58 10.34 11.69 10.19 11.69L10.19 11.69ZM10.19 11.69M8.75 16.1C8.7 16.1 8.66 16.09 8.62 16.08C8.42 16 8.32 15.77 8.39 15.56L9.46 12.28C9.53 12.06 9.75 11.95 9.94 12.03C10.14 12.1 10.24 12.33 10.17 12.54L9.1 15.83C9.05 15.99 8.9 16.1 8.75 16.1L8.75 16.1ZM8.75 16.1M7.21 13.03C7.17 13.03 7.13 13.03 7.09 13.01C6.89 12.94 6.79 12.71 6.86 12.49L8.42 7.69C8.49 7.48 8.71 7.37 8.91 7.45C9.1 7.52 9.2 7.75 9.14 7.96L7.57 12.76C7.52 12.93 7.37 13.03 7.21 13.03L7.21 13.03ZM7.21 13.03M6.48 15.29C6.44 15.29 6.39 15.28 6.35 15.26C6.16 15.19 6.05 14.96 6.12 14.74L6.35 14.04C6.42 13.83 6.64 13.71 6.83 13.79C7.03 13.87 7.13 14.1 7.06 14.31L6.83 15.01C6.78 15.18 6.63 15.29 6.48 15.29L6.48 15.29ZM6.48 15.29" />
			</g>
		</g>
	</g>
</svg>