<svg version="1.2" baseProfile="tiny-ps" xmlns="http://www.w3.org/2000/svg" width="17" height="26"><style/><g id="ХЕДЕР"><g id="Контакты"><g id="адрес"><path id="город" d="M8.45 12.32a3.6 3.6 0 01-2.57-1.06 3.658 3.658 0 010-5.16c.68-.69 1.6-1.07 2.57-1.07.97 0 1.88.38 2.57 1.07a3.658 3.658 0 010 5.16 3.6 3.6 0 01-2.57 1.06zm0-5.7c-.55 0-1.07.21-1.45.6-.8.8-.8 2.11 0 2.91.38.39.9.61 1.45.61.55 0 1.06-.22 1.45-.61.8-.8.8-2.11 0-2.91-.39-.39-.9-.6-1.45-.6zm5.23 1.23c-.18 0-.34-.12-.38-.3-.03-.13-.05-.22-.07-.29a.787.787 0 00-.05-.2c-.08-.2.01-.43.21-.52.2-.08.43.01.52.21.05.12.07.2.1.34.01.07.03.16.06.28a.39.39 0 01-.3.47c-.03.01-.06.01-.09.01zm-.71-1.7c-.13 0-.26-.07-.34-.19A5.142 5.142 0 008.96 3.6a.397.397 0 01-.33-.45c.03-.22.22-.37.44-.34 1.75.24 3.29 1.23 4.23 2.73.12.18.06.43-.12.55a.42.42 0 01-.21.06zM8.44 26c-.66 0-1.92-.3-2.94-2.32C4.31 21.34-.09 11.59-.09 8.52c0-4.7 3.81-8.53 8.49-8.53 4.69 0 8.5 3.83 8.5 8.53 0 3.04-4.4 12.91-5.52 15.16-.75 1.5-1.79 2.32-2.94 2.32zM8.4 1.58c-3.81 0-6.91 3.12-6.91 6.94 0 2.41 3.84 11.33 5.42 14.44.47.92 1.02 1.45 1.53 1.45.5 0 1.07-.54 1.53-1.45 1.37-2.75 5.35-11.99 5.35-14.44 0-3.82-3.11-6.94-6.92-6.94zm0 0" fill="#cbcbcb"/></g></g></g></svg>