<svg version="1.2" baseProfile="tiny-ps" xmlns="http://www.w3.org/2000/svg" width="24" height="26"><style/><g id="ХЕДЕР"><g id="Контакты"><g id="часы работы"><path id="часы" d="M11.86 25.71C5.54 25.71.4 20.4.4 13.87S5.54 2.02 11.86 2.02c6.31 0 11.45 5.32 11.45 11.85 0 6.53-5.14 11.84-11.45 11.84zm0-22.1c-5.48 0-9.93 4.6-9.93 10.26 0 5.65 4.45 10.25 9.93 10.25 5.47 0 9.92-4.6 9.92-10.25 0-5.66-4.45-10.26-9.92-10.26zM7.79 21.7a.33.33 0 01-.19-.06c-2.71-1.58-4.39-4.56-4.39-7.77 0-.22.18-.4.39-.4.21 0 .38.18.38.4 0 2.92 1.53 5.64 4 7.08.18.11.25.36.14.55-.07.13-.2.2-.33.2zm3.31 1.07h-.03c-.17-.02-.33-.04-.5-.07-.21-.03-.35-.23-.32-.45.03-.21.23-.36.44-.33.15.02.29.04.45.05.21.02.36.22.34.43-.01.21-.18.37-.38.37zM2.45 8.52c-.14 0-.28-.04-.41-.12A4.598 4.598 0 010 4.55C0 2.02 1.98-.03 4.42-.03c1.78 0 3.38 1.1 4.08 2.8.16.4-.02.87-.41 1.04-.4.17-.84-.02-1.01-.43-.45-1.1-1.5-1.82-2.66-1.82-1.59 0-2.88 1.34-2.88 2.99 0 1.02.49 1.96 1.33 2.51.35.24.46.73.23 1.1a.77.77 0 01-.65.36zm19.1 0a.77.77 0 01-.65-.36.82.82 0 01.23-1.1c.84-.55 1.33-1.49 1.33-2.51 0-1.65-1.29-2.99-2.88-2.99-1.16 0-2.21.72-2.66 1.82a.76.76 0 01-1.01.43c-.39-.17-.57-.64-.41-1.04.7-1.7 2.3-2.8 4.08-2.8C22.02-.03 24 2.02 24 4.55c0 1.56-.76 3-2.04 3.85-.13.08-.27.12-.41.12zM3.76 25.97c-.17 0-.33-.06-.47-.17a.802.802 0 01-.14-1.11l1.68-2.28a.76.76 0 011.08-.15c.33.27.4.77.14 1.12l-1.68 2.27a.75.75 0 01-.61.32zm15.94 0c-.23 0-.46-.11-.62-.32l-1.68-2.27a.827.827 0 01.15-1.12c.33-.26.82-.2 1.07.15l1.69 2.28c.25.35.19.85-.15 1.11-.14.11-.3.17-.46.17zm-5.66-8.83c-.2 0-.4-.08-.55-.24l-2.07-2.28c-.15-.15-.11-.35-.11-.56V7.78c0-.44.34-.8.77-.8.42 0 .77.36.77.8v5.95l1.85 2.06c.3.31.24.81-.07 1.12-.15.16-.4.23-.59.23zm0 0" fill="#cbcbcb"/></g></g></g></svg>