<svg version="1.2" baseProfile="tiny-ps" xmlns="http://www.w3.org/2000/svg" width="17" height="26"><style/><g id="ХЕДЕР"><g id="Контакты"><g id="тел"><path id="телефон" d="M16.98 23.18c0 1.56-1.17 2.82-2.62 2.82H2.59c-1.44 0-2.62-1.26-2.62-2.82V2.82C-.03 1.26 1.15 0 2.59 0h11.77c1.45 0 2.62 1.26 2.62 2.82v20.36zM15.47 2.82c0-.66-.5-1.2-1.11-1.2H2.59c-.61 0-1.1.54-1.1 1.2v20.36c0 .66.49 1.2 1.1 1.2h11.77c.61 0 1.11-.54 1.11-1.2V2.82zm.74 17.9H.71c-.21 0-.38-.18-.38-.41 0-.22.17-.4.38-.4h15.5c.21 0 .38.18.38.4 0 .23-.17.41-.38.41zm0-16.25H.71c-.21 0-.38-.18-.38-.41 0-.22.17-.4.38-.4h15.5c.21 0 .38.18.38.4 0 .23-.17.41-.38.41zM9.42 22.44c0 .4-.29.72-.66.72h-.19c-.36 0-.66-.32-.66-.72v-.2c0-.39.3-.71.66-.71h.19c.37 0 .66.32.66.71v.2zm.77-10.75c-.05 0-.09-.01-.13-.03-.2-.07-.3-.3-.23-.51l.1-.32c.07-.21.29-.32.48-.25.2.08.3.31.23.52l-.1.32c-.05.16-.2.27-.35.27zM8.75 16.1c-.05 0-.09-.01-.13-.02-.2-.08-.3-.31-.23-.52l1.07-3.28c.07-.22.29-.33.48-.25.2.07.3.3.23.51L9.1 15.83c-.05.16-.2.27-.35.27zm-1.54-3.07c-.04 0-.08 0-.12-.02-.2-.07-.3-.3-.23-.52l1.56-4.8c.07-.21.29-.32.49-.24.19.07.29.3.23.51l-1.57 4.8c-.05.17-.2.27-.36.27zm-.73 2.26c-.04 0-.09-.01-.13-.03-.19-.07-.3-.3-.23-.52l.23-.7c.07-.21.29-.33.48-.25.2.08.3.31.23.52l-.23.7c-.05.17-.2.28-.35.28zm0 0" fill="#cbcbcb"/></g></g></g></svg>